name ./resultDataOpenSim/trcMotMarkerGrf/sub10/grf-03-03.mot
datacolumns 19
datarows 30
range 0.52800000 0.64400000
endheader

                time	     ground_force_vx	     ground_force_vy	     ground_force_vz	     ground_force_px	     ground_force_py	     ground_force_pz	   l_ground_force_vx	   l_ground_force_vy	   l_ground_force_vz	   l_ground_force_px	   l_ground_force_py	   l_ground_force_pz	     ground_torque_x	     ground_torque_y	     ground_torque_z	   l_ground_torque_x	   l_ground_torque_y	   l_ground_torque_z	
          0.52800000	         48.71919862	        498.26333323	        -16.80657154	         -0.75846837	          0.00000000	         -0.01263962	          0.00000000	          0.00000000	          0.00000000	          0.00000000	          0.00000000	          0.00000000	          0.00000000	          3.69040930	          0.00000000	          0.00000000	          0.00000000	          0.00000000	
          0.53200000	         50.78378857	        508.98250180	        -16.31977932	         -0.75741075	          0.00000000	         -0.01272863	          0.00000000	          0.00000000	          0.00000000	          0.00000000	          0.00000000	          0.00000000	          0.00000000	          3.91563524	          0.00000000	          0.00000000	          0.00000000	          0.00000000	
          0.53600000	         52.77991161	        520.34802741	        -16.18162696	         -0.75631265	          0.00000000	         -0.01281299	          0.00000000	          0.00000000	          0.00000000	          0.00000000	          0.00000000	          0.00000000	          0.00000000	          4.11718132	          0.00000000	          0.00000000	          0.00000000	          0.00000000	
          0.54000000	         54.73905278	        532.33716888	        -16.63720012	         -0.75517328	          0.00000000	         -0.01288677	          0.00000000	          0.00000000	          0.00000000	          0.00000000	          0.00000000	          0.00000000	          0.00000000	          4.26452419	          0.00000000	          0.00000000	          0.00000000	          0.00000000	
          0.54400000	         56.70347744	        544.91017703	        -17.80866367	         -0.75399726	          0.00000000	         -0.01294887	          0.00000000	          0.00000000	          0.00000000	          0.00000000	          0.00000000	          0.00000000	          0.00000000	          4.33811305	          0.00000000	          0.00000000	          0.00000000	          0.00000000	
          0.54800000	         58.72549398	        558.01089139	        -19.67078228	         -0.75279896	          0.00000000	         -0.01299954	          0.00000000	          0.00000000	          0.00000000	          0.00000000	          0.00000000	          0.00000000	          0.00000000	          4.33275103	          0.00000000	          0.00000000	          0.00000000	          0.00000000	
          0.55200000	         60.86353336	        571.56395036	        -22.05540949	         -0.75159947	          0.00000000	         -0.01304385	          0.00000000	          0.00000000	          0.00000000	          0.00000000	          0.00000000	          0.00000000	          0.00000000	          4.25744563	          0.00000000	          0.00000000	          0.00000000	          0.00000000	
          0.55600000	         63.17784218	        585.48858572	        -24.68706562	         -0.75041420	          0.00000000	         -0.01309464	          0.00000000	          0.00000000	          0.00000000	          0.00000000	          0.00000000	          0.00000000	          0.00000000	          4.13208339	          0.00000000	          0.00000000	          0.00000000	          0.00000000	
          0.56000000	         65.72977962	        599.72800140	        -27.24386440	         -0.74925073	          0.00000000	         -0.01316877	          0.00000000	          0.00000000	          0.00000000	          0.00000000	          0.00000000	          0.00000000	          0.00000000	          3.98207189	          0.00000000	          0.00000000	          0.00000000	          0.00000000	
          0.56400000	         68.58335680	        614.26562356	        -29.42812681	         -0.74811829	          0.00000000	         -0.01328259	          0.00000000	          0.00000000	          0.00000000	          0.00000000	          0.00000000	          0.00000000	          0.00000000	          3.83243217	          0.00000000	          0.00000000	          0.00000000	          0.00000000	
          0.56800000	         71.80251220	        629.10916312	        -31.02625455	         -0.74703135	          0.00000000	         -0.01344969	          0.00000000	          0.00000000	          0.00000000	          0.00000000	          0.00000000	          0.00000000	          0.00000000	          3.70272434	          0.00000000	          0.00000000	          0.00000000	          0.00000000	
          0.57200000	         75.44205705	        644.24856256	        -31.93993797	         -0.74600086	          0.00000000	         -0.01368043	          0.00000000	          0.00000000	          0.00000000	          0.00000000	          0.00000000	          0.00000000	          0.00000000	          3.60380109	          0.00000000	          0.00000000	          0.00000000	          0.00000000	
          0.57600000	         79.53875746	        659.61032532	        -32.18037975	         -0.74502818	          0.00000000	         -0.01398514	          0.00000000	          0.00000000	          0.00000000	          0.00000000	          0.00000000	          0.00000000	          0.00000000	          3.53689263	          0.00000000	          0.00000000	          0.00000000	          0.00000000	
          0.58000000	         84.10766801	        675.04067250	        -31.83350627	         -0.74410685	          0.00000000	         -0.01437581	          0.00000000	          0.00000000	          0.00000000	          0.00000000	          0.00000000	          0.00000000	          0.00000000	          3.49504645	          0.00000000	          0.00000000	          0.00000000	          0.00000000	
          0.58400000	         89.14203714	        690.33773744	        -31.02056185	         -0.74323090	          0.00000000	         -0.01486307	          0.00000000	          0.00000000	          0.00000000	          0.00000000	          0.00000000	          0.00000000	          0.00000000	          3.46650266	          0.00000000	          0.00000000	          0.00000000	          0.00000000	
          0.58800000	         94.61791518	        705.30482484	        -29.87198395	         -0.74239579	          0.00000000	         -0.01545270	          0.00000000	          0.00000000	          0.00000000	          0.00000000	          0.00000000	          0.00000000	          0.00000000	          3.43919041	          0.00000000	          0.00000000	          0.00000000	          0.00000000	
          0.59200000	        100.50924539	        719.76471650	        -28.50204142	         -0.74159827	          0.00000000	         -0.01613907	          0.00000000	          0.00000000	          0.00000000	          0.00000000	          0.00000000	          0.00000000	          0.00000000	          3.40523520	          0.00000000	          0.00000000	          0.00000000	          0.00000000	
          0.59600000	        106.80734920	        733.53052551	        -26.97350751	         -0.74084005	          0.00000000	         -0.01690835	          0.00000000	          0.00000000	          0.00000000	          0.00000000	          0.00000000	          0.00000000	          0.00000000	          3.36425734	          0.00000000	          0.00000000	          0.00000000	          0.00000000	
          0.60000000	        113.52527615	        746.39442874	        -25.27708599	         -0.74011763	          0.00000000	         -0.01774655	          0.00000000	          0.00000000	          0.00000000	          0.00000000	          0.00000000	          0.00000000	          0.00000000	          3.32444106	          0.00000000	          0.00000000	          0.00000000	          0.00000000	
          0.60400000	        120.67995010	        758.15937697	        -23.34167186	         -0.73943499	          0.00000000	         -0.01864063	          0.00000000	          0.00000000	          0.00000000	          0.00000000	          0.00000000	          0.00000000	          0.00000000	          3.30094632	          0.00000000	          0.00000000	          0.00000000	          0.00000000	
          0.60800000	        128.26855446	        768.67879873	        -21.05955257	         -0.73880032	          0.00000000	         -0.01957096	          0.00000000	          0.00000000	          0.00000000	          0.00000000	          0.00000000	          0.00000000	          0.00000000	          3.31206693	          0.00000000	          0.00000000	          0.00000000	          0.00000000	
          0.61200000	        136.25811500	        777.86936178	        -18.32190891	         -0.73822491	          0.00000000	         -0.02052516	          0.00000000	          0.00000000	          0.00000000	          0.00000000	          0.00000000	          0.00000000	          0.00000000	          3.37420870	          0.00000000	          0.00000000	          0.00000000	          0.00000000	
          0.61600000	        144.58991063	        785.68613153	        -15.06778682	         -0.73771802	          0.00000000	         -0.02149098	          0.00000000	          0.00000000	          0.00000000	          0.00000000	          0.00000000	          0.00000000	          0.00000000	          3.49699756	          0.00000000	          0.00000000	          0.00000000	          0.00000000	
          0.62000000	        153.18846742	        792.07890911	        -11.32562949	         -0.73727788	          0.00000000	         -0.02245225	          0.00000000	          0.00000000	          0.00000000	          0.00000000	          0.00000000	          0.00000000	          0.00000000	          3.67968350	          0.00000000	          0.00000000	          0.00000000	          0.00000000	
          0.62400000	        161.96682081	        796.96902143	         -7.22704206	         -0.73689246	          0.00000000	         -0.02338903	          0.00000000	          0.00000000	          0.00000000	          0.00000000	          0.00000000	          0.00000000	          0.00000000	          3.90964971	          0.00000000	          0.00000000	          0.00000000	          0.00000000	
          0.62800000	        170.82589485	        800.26194136	         -2.99394966	         -0.73655899	          0.00000000	         -0.02428338	          0.00000000	          0.00000000	          0.00000000	          0.00000000	          0.00000000	          0.00000000	          0.00000000	          4.16339347	          0.00000000	          0.00000000	          0.00000000	          0.00000000	
          0.63200000	        179.65419080	        801.86821139	          1.09718056	         -0.73628175	          0.00000000	         -0.02512309	          0.00000000	          0.00000000	          0.00000000	          0.00000000	          0.00000000	          0.00000000	          0.00000000	          4.40988920	          0.00000000	          0.00000000	          0.00000000	          0.00000000	
          0.63600000	        188.33448565	        801.70646846	          4.76822245	         -0.73605718	          0.00000000	         -0.02590164	          0.00000000	          0.00000000	          0.00000000	          0.00000000	          0.00000000	          0.00000000	          0.00000000	          4.61578132	          0.00000000	          0.00000000	          0.00000000	          0.00000000	
          0.64000000	        196.75350419	        799.69955768	          7.79367293	         -0.73587492	          0.00000000	         -0.02661776	          0.00000000	          0.00000000	          0.00000000	          0.00000000	          0.00000000	          0.00000000	          0.00000000	          4.75139546	          0.00000000	          0.00000000	          0.00000000	          0.00000000	
          0.64400000	        204.80756600	        795.78159973	         10.04271114	         -0.73572478	          0.00000000	         -0.02727592	          0.00000000	          0.00000000	          0.00000000	          0.00000000	          0.00000000	          0.00000000	          0.00000000	          4.79623562	          0.00000000	          0.00000000	          0.00000000	          0.00000000	
